<?xml version="1.0" standalone="no"?>
<!DOCTYPE svg PUBLIC "-//W3C//DTD SVG 20010904//EN"
 "http://www.w3.org/TR/2001/REC-SVG-20010904/DTD/svg10.dtd">
<svg version="1.0" xmlns="http://www.w3.org/2000/svg"
 width="3840.000000pt" height="3840.000000pt" viewBox="0 0 3840.000000 3840.000000"
 preserveAspectRatio="xMidYMid meet">
<metadata>
Created by potrace 1.14, written by Peter Selinger 2001-2017
</metadata>
<g transform="translate(0.000000,3840.000000) scale(0.100000,-0.100000)"
fill="#000000" stroke="none">
<path d="M22800 32550 l0 -150 -150 0 -150 0 0 -150 0 -150 -150 0 -150 0 0
-150 0 -150 -300 0 -300 0 0 -300 0 -300 -300 0 -300 0 0 -150 0 -150 -150 0
-150 0 0 -150 0 -150 -150 0 -150 0 0 -450 0 -450 -150 0 -150 0 0 -450 0
-450 -150 0 -150 0 0 -600 0 -600 -150 0 -150 0 0 -450 0 -450 -150 0 -150 0
0 -150 0 -150 -150 0 -150 0 0 -600 0 -600 -150 0 -150 0 0 -450 0 -450 -150
0 -150 0 0 -150 0 -150 -150 0 -150 0 0 -600 0 -600 -150 0 -150 0 0 -450 0
-450 -150 0 -150 0 0 -300 0 -300 -150 0 -150 0 0 -300 0 -300 -150 0 -150 0
0 -450 0 -450 -300 0 -300 0 0 -300 0 -300 -150 0 -150 0 0 -450 0 -450 -300
0 -300 0 0 -300 0 -300 -150 0 -150 0 0 -150 0 -150 -150 0 -150 0 0 -300 0
-300 -300 0 -300 0 0 -300 0 -300 -150 0 -150 0 0 -300 0 -300 -150 0 -150 0
0 -150 0 -150 -150 0 -150 0 0 -300 0 -300 -150 0 -150 0 0 -150 0 -150 -300
0 -300 0 0 -150 0 -150 -150 0 -150 0 0 -300 0 -300 -300 0 -300 0 0 -300 0
-300 -150 0 -150 0 0 -300 0 -300 -300 0 -300 0 0 -450 0 -450 -150 0 -150 0
0 -600 0 -600 -150 0 -150 0 0 -150 0 -150 -150 0 -150 0 0 -750 0 -750 150 0
150 0 0 -150 0 -150 150 0 150 0 0 -450 0 -450 300 0 300 0 0 -300 0 -300 300
0 300 0 0 -300 0 -300 600 0 600 0 0 -150 0 -150 1350 0 1350 0 0 150 0 150
450 0 450 0 0 150 0 150 300 0 300 0 0 150 0 150 150 0 150 0 0 150 0 150 300
0 300 0 0 300 0 300 300 0 300 0 0 300 0 300 300 0 300 0 0 300 0 300 300 0
300 0 0 300 0 300 300 0 300 0 0 150 0 150 150 0 150 0 0 150 0 150 150 0 150
0 0 150 0 150 300 0 300 0 0 150 0 150 150 0 150 0 0 150 0 150 150 0 150 0 0
450 0 450 150 0 150 0 0 150 0 150 300 0 300 0 0 300 0 300 150 0 150 0 0 150
0 150 150 0 150 0 0 300 0 300 150 0 150 0 0 300 0 300 300 0 300 0 0 600 0
600 150 0 150 0 0 150 0 150 150 0 150 0 0 300 0 300 150 0 150 0 0 450 0 450
150 0 150 0 0 150 0 150 150 0 150 0 0 150 0 150 150 0 150 0 0 600 0 600 150
0 150 0 0 150 0 150 150 0 150 0 0 600 0 600 150 0 150 0 0 150 0 150 150 0
150 0 0 750 0 750 150 0 150 0 0 450 0 450 150 0 150 0 0 150 0 150 150 0 150
0 0 600 0 600 150 0 150 0 0 300 0 300 150 0 150 0 0 2550 0 2550 -150 0 -150
0 0 150 0 150 -150 0 -150 0 0 150 0 150 -150 0 -150 0 0 150 0 150 -150 0
-150 0 0 150 0 150 -150 0 -150 0 0 150 0 150 -150 0 -150 0 0 150 0 150 -150
0 -150 0 0 150 0 150 -450 0 -450 0 0 150 0 150 -1500 0 -1500 0 0 -150z
m2700 -300 l0 -150 450 0 450 0 0 -150 0 -150 150 0 150 0 0 -150 0 -150 150
0 150 0 0 -150 0 -150 150 0 150 0 0 -150 0 -150 150 0 150 0 0 -150 0 -150
150 0 150 0 0 -150 0 -150 150 0 150 0 0 -150 0 -150 150 0 150 0 0 -2250 0
-2250 -150 0 -150 0 0 -300 0 -300 -150 0 -150 0 0 -600 0 -600 -150 0 -150 0
0 -150 0 -150 -150 0 -150 0 0 -450 0 -450 -150 0 -150 0 0 -750 0 -750 -150
0 -150 0 0 -150 0 -150 -150 0 -150 0 0 -600 0 -600 -150 0 -150 0 0 -150 0
-150 -150 0 -150 0 0 -600 0 -600 -150 0 -150 0 0 -150 0 -150 -150 0 -150 0
0 -150 0 -150 -150 0 -150 0 0 -450 0 -450 -150 0 -150 0 0 -300 0 -300 -150
0 -150 0 0 -150 0 -150 -150 0 -150 0 0 -600 0 -600 -300 0 -300 0 0 -300 0
-300 -150 0 -150 0 0 -300 0 -300 -150 0 -150 0 0 -150 0 -150 -150 0 -150 0
0 -300 0 -300 -300 0 -300 0 0 -150 0 -150 -150 0 -150 0 0 -450 0 -450 -150
0 -150 0 0 -150 0 -150 -150 0 -150 0 0 -150 0 -150 -300 0 -300 0 0 -150 0
-150 -150 0 -150 0 0 -150 0 -150 -150 0 -150 0 0 -150 0 -150 -300 0 -300 0
0 -300 0 -300 -300 0 -300 0 0 -300 0 -300 -300 0 -300 0 0 -300 0 -300 -300
0 -300 0 0 -300 0 -300 -300 0 -300 0 0 -150 0 -150 -150 0 -150 0 0 -150 0
-150 -300 0 -300 0 0 -150 0 -150 -450 0 -450 0 0 -150 0 -150 -1050 0 -1050
0 0 150 0 150 -600 0 -600 0 0 300 0 300 -300 0 -300 0 0 300 0 300 -300 0
-300 0 0 450 0 450 -150 0 -150 0 0 150 0 150 -150 0 -150 0 0 450 0 450 150
0 150 0 0 150 0 150 150 0 150 0 0 600 0 600 150 0 150 0 0 450 0 450 300 0
300 0 0 300 0 300 150 0 150 0 0 300 0 300 300 0 300 0 0 300 0 300 150 0 150
0 0 150 0 150 300 0 300 0 0 150 0 150 150 0 150 0 0 300 0 300 150 0 150 0 0
150 0 150 150 0 150 0 0 300 0 300 150 0 150 0 0 300 0 300 300 0 300 0 0 300
0 300 150 0 150 0 0 150 0 150 150 0 150 0 0 300 0 300 300 0 300 0 0 450 0
450 150 0 150 0 0 300 0 300 300 0 300 0 0 450 0 450 150 0 150 0 0 300 0 300
150 0 150 0 0 300 0 300 150 0 150 0 0 450 0 450 150 0 150 0 0 600 0 600 150
0 150 0 0 150 0 150 150 0 150 0 0 450 0 450 150 0 150 0 0 600 0 600 150 0
150 0 0 150 0 150 150 0 150 0 0 450 0 450 150 0 150 0 0 600 0 600 150 0 150
0 0 450 0 450 150 0 150 0 0 450 0 450 150 0 150 0 0 150 0 150 150 0 150 0 0
150 0 150 300 0 300 0 0 300 0 300 300 0 300 0 0 150 0 150 150 0 150 0 0 150
0 150 150 0 150 0 0 150 0 150 1200 0 1200 0 0 -150z"/>
<path d="M21300 30150 l0 -150 -150 0 -150 0 0 -150 0 -150 300 0 300 0 0 150
0 150 600 0 600 0 0 -150 0 -150 300 0 300 0 0 150 0 150 -150 0 -150 0 0 150
0 150 -900 0 -900 0 0 -150z"/>
<path d="M25200 30150 l0 -150 -150 0 -150 0 0 -150 0 -150 300 0 300 0 0 150
0 150 600 0 600 0 0 -150 0 -150 300 0 300 0 0 150 0 150 -150 0 -150 0 0 150
0 150 -900 0 -900 0 0 -150z"/>
<path d="M20700 29250 l0 -150 150 0 150 0 0 -150 0 -150 150 0 150 0 0 -750
0 -750 150 0 150 0 0 -150 0 -150 750 0 750 0 0 150 0 150 150 0 150 0 0 -450
0 -450 150 0 150 0 0 -150 0 -150 450 0 450 0 0 150 0 150 150 0 150 0 0 450
0 450 150 0 150 0 0 -150 0 -150 900 0 900 0 0 750 0 750 150 0 150 0 0 150 0
150 150 0 150 0 0 300 0 300 -1350 0 -1350 0 0 -150 0 -150 -150 0 -150 0 0
-300 0 -300 -150 0 -150 0 0 -150 0 -150 -150 0 -150 0 0 150 0 150 -150 0
-150 0 0 300 0 300 -150 0 -150 0 0 150 0 150 -1350 0 -1350 0 0 -150z m2100
-300 l0 -150 150 0 150 0 0 -600 0 -600 -150 0 -150 0 0 -150 0 -150 -450 0
-450 0 0 150 0 150 -150 0 -150 0 0 600 0 600 150 0 150 0 0 150 0 150 450 0
450 0 0 -150z m3600 0 l0 -150 150 0 150 0 0 -600 0 -600 -150 0 -150 0 0
-150 0 -150 -450 0 -450 0 0 150 0 150 -150 0 -150 0 0 600 0 600 150 0 150 0
0 150 0 150 450 0 450 0 0 -150z m-2700 -1350 l0 -300 150 0 150 0 0 300 0
300 150 0 150 0 0 -300 0 -300 150 0 150 0 0 300 0 300 150 0 150 0 0 -300 0
-300 -150 0 -150 0 0 -450 0 -450 -450 0 -450 0 0 450 0 450 -150 0 -150 0 0
300 0 300 150 0 150 0 0 -300z"/>
<path d="M21600 25950 l0 -150 -150 0 -150 0 0 -150 0 -150 -150 0 -150 0 0
-150 0 -150 -150 0 -150 0 0 -600 0 -600 300 0 300 0 0 150 0 150 150 0 150 0
0 150 0 150 150 0 150 0 0 -150 0 -150 150 0 150 0 0 -150 0 -150 600 0 600 0
0 150 0 150 150 0 150 0 0 150 0 150 150 0 150 0 0 150 0 150 300 0 300 0 0
-150 0 -150 150 0 150 0 0 -150 0 -150 150 0 150 0 0 -150 0 -150 600 0 600 0
0 150 0 150 150 0 150 0 0 150 0 150 150 0 150 0 0 -150 0 -150 150 0 150 0 0
-150 0 -150 150 0 150 0 0 600 0 600 -150 0 -150 0 0 150 0 150 -150 0 -150 0
0 150 0 150 -150 0 -150 0 0 150 0 150 -900 0 -900 0 0 -150 0 -150 -750 0
-750 0 0 150 0 150 -900 0 -900 0 0 -150z"/>
<path d="M25200 21150 l0 -150 150 0 150 0 0 150 0 150 -150 0 -150 0 0 -150z"/>
<path d="M24600 20850 l0 -150 150 0 150 0 0 -150 0 -150 150 0 150 0 0 150 0
150 -150 0 -150 0 0 150 0 150 -150 0 -150 0 0 -150z"/>
<path d="M18000 19650 l0 -150 -150 0 -150 0 0 -150 0 -150 -150 0 -150 0 0
-300 0 -300 150 0 150 0 0 -150 0 -150 150 0 150 0 0 -150 0 -150 150 0 150 0
0 -150 0 -150 150 0 150 0 0 300 0 300 -150 0 -150 0 0 150 0 150 150 0 150 0
0 150 0 150 -300 0 -300 0 0 150 0 150 300 0 300 0 0 300 0 300 -300 0 -300 0
0 -150z"/>
<path d="M23700 18750 l0 -150 -300 0 -300 0 0 -150 0 -150 -150 0 -150 0 0
-300 0 -300 150 0 150 0 0 -150 0 -150 150 0 150 0 0 300 0 300 450 0 450 0 0
150 0 150 -150 0 -150 0 0 300 0 300 -150 0 -150 0 0 -150z"/>
<path d="M14100 13800 l0 -600 150 0 150 0 0 -150 0 -150 300 0 300 0 0 150 0
150 -300 0 -300 0 0 600 0 600 -150 0 -150 0 0 -600z"/>
<path d="M15000 13950 l0 -150 150 0 150 0 0 150 0 150 -150 0 -150 0 0 -150z"/>
<path d="M18900 13050 l0 -150 -150 0 -150 0 0 -600 0 -600 600 0 600 0 0 300
0 300 -300 0 -300 0 0 450 0 450 -150 0 -150 0 0 -150z m300 -900 l0 -150
-150 0 -150 0 0 150 0 150 150 0 150 0 0 -150z"/>
<path d="M13800 12750 l0 -150 150 0 150 0 0 150 0 150 -150 0 -150 0 0 -150z"/>
<path d="M12000 9450 l0 -150 -150 0 -150 0 0 -150 0 -150 -150 0 -150 0 0
-450 0 -450 600 0 600 0 0 300 0 300 150 0 150 0 0 150 0 150 -150 0 -150 0 0
-150 0 -150 -150 0 -150 0 0 -150 0 -150 -300 0 -300 0 0 300 0 300 150 0 150
0 0 150 0 150 150 0 150 0 0 150 0 150 -150 0 -150 0 0 -150z"/>
<path d="M15900 9450 l0 -150 150 0 150 0 0 150 0 150 -150 0 -150 0 0 -150z"/>
<path d="M15300 9000 l0 -300 -300 0 -300 0 0 -150 0 -150 300 0 300 0 0 -150
0 -150 150 0 150 0 0 150 0 150 150 0 150 0 0 150 0 150 -150 0 -150 0 0 300
0 300 -150 0 -150 0 0 -300z m300 -450 l0 -150 -150 0 -150 0 0 150 0 150 150
0 150 0 0 -150z"/>
</g>
</svg>
